<svg role="img" fill="#aaa" viewBox="0 0 24 24" xmlns="http://www.w3.org/2000/svg">
	<path d="M5.25 23.75c-1.24 0-2.25-1-2.25-2.25V14a.75.75 0 0 1 1.5 0v7.5c0 .42.34.75.75.75h13.5c.41 0 .75-.33.75-.75V14a.75.75 0 0 1 1.5 0v7.5c0 1.24-1 2.25-2.25 2.25z"/><path d="M23.25 13.38a.74.74 0 0 1-.53-.22L12.54 2.98a.75.75 0 0 0-1.07-.01L1.28 13.17a.74.74 0 0 1-1.06 0 .75.75 0 0 1 0-1.07L10.41 1.91a2.23 2.23 0 0 1 3.17 0l2.17 2.16V3.5c0-.41.34-.75.75-.75h3.75c.41 0 .75.34.75.75v5.82l2.78 2.78a.74.74 0 0 1 0 1.06.75.75 0 0 1-.53.22zM19.5 7.82V4.25h-2.25v1.32z"/><path d="M11.98 19.25c-.37 0-.7-.15-.94-.41l-3.5-3.63a2.8 2.8 0 0 1 .08-3.97 2.64 2.64 0 0 1 3.75.09l.63.66.64-.67.09-.08a2.62 2.62 0 0 1 1.9-.73c.7.01 1.36.3 1.84.82a2.8 2.8 0 0 1 0 3.88l-3.54 3.66c-.26.25-.58.38-.93.38h-.02zm-2.53-7.24a1.14 1.14 0 0 0-.84.35 1.3 1.3 0 0 0 0 1.81l3.39 3.5 3.4-3.5c.47-.5.47-1.3-.01-1.8-.21-.23-.5-.35-.8-.36h-.04c-.3 0-.57.1-.79.31l-.04.05-1.18 1.22c-.14.14-.34.22-.54.22s-.4-.08-.54-.22l-1.18-1.22a1.15 1.15 0 0 0-.83-.36z"/>
</svg>