<svg id="stamp" version="1.1" xmlns="http://www.w3.org/2000/svg" xmlns:xlink="http://www.w3.org/1999/xlink" xml:space="preserve" width="200" viewBox="0, 0, 100, 130" height="250">
	<defs>
	<path id="trike" d="M21.004,8.013c-10.422,0-18.872,8.449-18.872,18.873c0,10.423,8.45,18.872,18.872,18.872
		c10.424,0,18.873-8.449,18.873-18.872C39.877,16.462,31.428,8.013,21.004,8.013z M21.004,41.175
		c-7.891,0-14.289-6.397-14.289-14.289c0-7.893,6.398-14.289,14.289-14.289c7.893,0,14.289,6.396,14.289,14.289
		C35.293,34.778,28.896,41.175,21.004,41.175z M56.303,27.437c0.001-0.406,0.001-0.794,0.001-1.153c0-2.314-0.274-4.621-0.804-6.882
		c-0.004,0.002-0.008,0.004-0.011,0.006c-0.409-1.887-0.961-3.721-1.657-5.483H48.39c1.081,2.281,1.878,4.722,2.364,7.272
		c-0.006,0.002-0.012,0.004-0.018,0.006v0.076c0.33,1.656,0.513,3.331,0.513,5.005c0,0.28,0,0.599,0,0.905
		c-4.153,0.953-7.261,4.654-7.261,9.104c0,5.164,4.183,9.34,9.353,9.34c5.159,0,9.338-4.176,9.338-9.34
		C62.679,32.167,60.006,28.672,56.303,27.437z M53.341,41.385c-2.812,0-5.097-2.284-5.097-5.092c0-2.043,1.215-3.802,2.956-4.612
		c-0.031,1.919-0.066,3.904-0.102,5.675l5.05,0.094c0.03-1.653,0.068-3.513,0.102-5.325c1.307,0.918,2.176,2.445,2.176,4.169
		C58.426,39.101,56.135,41.385,53.341,41.385z M40.001,16.291C34.199,5.8,20.992,1.998,10.502,7.798
		c-2.597,1.436-4.784,3.326-6.517,5.517L0,10.155c2.139-2.702,4.838-5.034,8.043-6.806c12.945-7.158,29.246-2.467,36.406,10.482
		L40.001,16.291z"></path>
	<path id="bear" d="M26.963,27.553c-5.911-2.202-13.65-5.002-14.744-5.427c-4.29-1.672-7.954-4.92-8.986-5.942
		C2.36,15.317,0,7.028,0,7.028l9.587-0.69l3.553-2.169l8.523-0.675c-0.006-0.079-0.029-0.157-0.029-0.231
		c0-1.8,1.464-3.263,3.263-3.263c1.792,0,3.254,1.463,3.254,3.263c0,0.362-0.073,0.709-0.183,1.03
		c1.766,0.544,4.333,1.172,7.661,1.598v0.492c-0.007,0.121-0.492,11.664-8.845,21.054L26.963,27.553z M89.174,68.894
		c0.854,0.458,1.938,0.902,3.247,1.091c0,0-2.668,4.376-8.493,3.192c-0.686-0.141-1.739-0.438-1.739-0.438l-0.083-0.056l-1.564-0.568
		c-1.609,0.307-3.264,0.486-4.963,0.486c-10.058,0-18.806-5.549-23.39-13.744c0.02-0.027,0.042-0.059,0.062-0.086
		c-0.037-0.488-0.074-0.978-0.074-1.476c0-0.22,0.025-0.434,0.033-0.651c0.031-0.913,0.122-1.81,0.278-2.686
		c-0.004-0.023-0.005-0.047-0.009-0.07c-0.871-0.252-1.754-0.447-2.639-0.615c-1.652-0.312-3.32-0.49-4.98-0.49
		c-0.684,0-6.41,0.083-12.819,2.845l1.279,2.001c-1.537,0.67-3.016,1.496-4.421,2.461l-0.873-1.367c-0.016,0-0.022,0.004-0.039,0.004
		c-1.799,0-3.258-1.459-3.258-3.255c0-1.228,0.684-2.284,1.684-2.837l0.021-0.037c0,0,7.876-5.849,10.816-10.301
		c1.953-3.068,0.828-6.958,0.828-6.958s-0.672-3.425-4.464-5.203c-0.372-0.178-1.188-0.507-2.274-0.925
		c0.501-0.612,0.986-1.216,1.432-1.837c0.635-0.549,2.4-1.68,4.844,0.067c0.292,0.209,0.522,0.339,0.711,0.403
		c5.164,3.45,10.264,4.16,14.506,3.782c6.246-0.555,10.636-3.466,10.636-3.466s8.084-5.497,16.321,0.229l6.758-2.471l-1.951-5.364
		l-0.459-1.264c0,0-14.355-6.287-25.687,4.694c-0.379,0.292-0.752,0.576-1.127,0.832c-11.614,6.982-18.84-2.779-20.486-4.49
		c2.938-6.591,3.324-12.616,3.376-14.025c1.069,0.049,2.188,0.078,3.358,0.078c9.556,0,11.279-2.692,17.994-2.563l-0.01-0.026
		c0.392-0.011,0.79-0.023,1.195-0.023c17.649,0,32.564,12.563,36.325,29.138c0.598,2.634,0.924,5.365,0.924,8.167
		c0,10.735-4.593,20.407-11.897,27.183C88.391,68.454,88.765,68.675,89.174,68.894z"></path>
	<path id="bear-leg" d="M28.354,0c-9.31,0-17.032,6.729-18.611,15.586c0.146,0.9,0.146,1.824-0.021,2.756
		c-0.085-0.027-0.172-0.045-0.257-0.07c-0.008,0.218-0.033,0.432-0.033,0.651c0,0.498,0.037,0.987,0.074,1.476
		c-0.02,0.027-0.042,0.059-0.062,0.086C6.884,24.129-1.6,33.004,0.266,36.109c1.032,1.633,5.839,9.237,5.839,9.237l-4.78,3.112
		l2.759,4.232L19.517,42.6l-1.875-3.375c7.487,1.881,16.957-2.35,18.046-2.854c1.306-0.55,2.535-1.244,3.673-2.06l-0.003-0.002
		c0,0,1.166-0.893,1.71-1.387l0,0c3.81-3.461,6.209-8.446,6.209-13.999C47.276,8.472,38.804,0,28.354,0z"></path>
	<path id="tophat" d="M2.323,15.403C0.13,9.671-0.646,4.646,0.583,4.177c0.621-0.236,1.638,0.73,2.776,2.5L7.88,4.946
		c0.313,0.122,0.962,0.541,1.639,1.94c1.665,3.479,4.11,9.229,3.788,12.861l-4.359,1.668c0.288,1.953,0.166,3.274-0.434,3.506
		C7.279,25.39,4.514,21.128,2.323,15.403z M17.789,18.035l8.664-3.306l-0.017-0.027c0.763-0.512,0.206-3.964-1.295-7.891
		c-1.502-3.933-3.392-6.882-4.301-6.756L20.819,0l-8.281,3.166c2.12,2.317,3.949,7.107,4.653,10.7
		C17.786,16.893,17.789,16.688,17.789,18.035z"></path>
	<path id="pedal-motion" stroke="#FF0000" d="M12.5,6.5c0-1.643-0.589-3.054-1.768-4.232C9.554,1.089,8.143,0.5,6.5,0.5
			S3.446,1.089,2.268,2.268C1.089,3.446,0.5,4.857,0.5,6.5c0,1.643,0.589,3.054,1.768,4.232C3.446,11.911,4.857,12.5,6.5,12.5
			s3.054-0.589,4.232-1.768C11.911,9.554,12.5,8.143,12.5,6.5"></path>
	</defs>
	<g id="stamp__logo" fill="grey">
		<g id="rider">
			<use xlink:href="#trike" x="23.039" y="78.986"></use>
			<use xlink:href="#bear" y="23.696"></use>
			<use xlink:href="#bear-leg" x="35.745" y="50.068">
				<animateMotion id="move" dur="1" repeatCount="indefinite">
					<mpath xlink:href="#pedal-motion"></mpath>
				</animateMotion>
			</use>
			<use xlink:href="#tophat" x="39.172"></use>
		</g>
	</g>
	<animateTransform attributeName="transform" type="translate" dur="0.5s" fill="freeze" values="0,-0.3;0,1;0,-0.3" repeatCount="indefinite"></animateTransform>
</svg>